<?xml version="1.0" encoding="utf-8"?>
<!-- Generator: Adobe Illustrator 13.0.0, SVG Export Plug-In . SVG Version: 6.00 Build 14948)  -->
<!DOCTYPE svg PUBLIC "-//W3C//DTD SVG 1.1//EN" "http://www.w3.org/Graphics/SVG/1.1/DTD/svg11.dtd" [
	<!ENTITY st0 "fill:#B4B4B4;">
]>
<svg version="1.1" id="レイヤー_1" xmlns="http://www.w3.org/2000/svg" xmlns:xlink="http://www.w3.org/1999/xlink" x="0px"
	 y="0px" width="38px" height="38px" viewBox="0 0 38 38" style="enable-background:new 0 0 38 38;" xml:space="preserve">
<path style="&st0;" d="M19,0C8.506,0,0,8.506,0,19c0,10.493,8.506,19,19,19c10.493,0,19-8.507,19-19C38,8.506,29.493,0,19,0z
	 M12.89,3.154c-1.238,1.406-2.302,3.224-3.124,5.344H5.658C7.532,6.123,10.022,4.264,12.89,3.154z M4.3,10.5h4.798
	c-0.667,2.278-1.07,4.813-1.152,7.5H2.051C2.21,15.28,3.004,12.732,4.3,10.5z M4.3,27.5c-1.295-2.231-2.09-4.779-2.25-7.501h5.895
	c0.082,2.688,0.485,5.223,1.152,7.501H4.3z M5.657,29.5h4.109c0.822,2.121,1.886,3.939,3.124,5.346
	C10.022,33.735,7.531,31.877,5.657,29.5z M18.001,35.885c-2.428-0.523-4.597-2.926-6.077-6.385h6.077V35.885z M18.001,27.5h-6.813
	c-0.712-2.244-1.154-4.797-1.243-7.501h8.057V27.5z M18.001,18.001H9.944c0.089-2.704,0.53-5.256,1.243-7.5h6.814V18.001z
	 M18.001,8.499h-6.077c1.48-3.458,3.649-5.86,6.077-6.384V8.499z M33.7,10.5c1.295,2.231,2.09,4.779,2.249,7.5h-5.896
	c-0.082-2.687-0.485-5.223-1.151-7.5H33.7z M32.342,8.499h-4.108c-0.821-2.12-1.885-3.938-3.123-5.344
	C27.978,4.264,30.468,6.123,32.342,8.499z M19.999,2.115c2.428,0.524,4.597,2.925,6.076,6.384h-6.076V2.115z M19.999,10.5h6.813
	c0.712,2.244,1.153,4.796,1.242,7.5h-8.056V10.5z M19.999,19.999h8.056c-0.089,2.704-0.53,5.257-1.242,7.501h-6.813V19.999z
	 M19.999,35.885V29.5h6.077C24.597,32.959,22.427,35.361,19.999,35.885z M25.11,34.846c1.238-1.406,2.302-3.225,3.124-5.346h4.109
	C30.469,31.877,27.978,33.735,25.11,34.846z M33.7,27.5h-4.798c0.666-2.278,1.069-4.813,1.151-7.501h5.896
	C35.79,22.721,34.995,25.269,33.7,27.5z"/>
</svg>
