<?xml version="1.0" encoding="utf-8"?>
<!-- Generator: Adobe Illustrator 13.0.0, SVG Export Plug-In . SVG Version: 6.00 Build 14948)  -->
<!DOCTYPE svg PUBLIC "-//W3C//DTD SVG 1.1//EN" "http://www.w3.org/Graphics/SVG/1.1/DTD/svg11.dtd" [
	<!ENTITY st0 "fill:#B4B4B4;">
]>
<svg version="1.1" id="レイヤー_1" xmlns="http://www.w3.org/2000/svg" xmlns:xlink="http://www.w3.org/1999/xlink" x="0px"
	 y="0px" width="38px" height="38px" viewBox="0 0 38 38" style="enable-background:new 0 0 38 38;" xml:space="preserve">
<path style="&st0;" d="M19,0C8.506,0,0,8.506,0,19c0,10.493,8.506,19,19,19c10.493,0,19-8.507,19-19C38,8.506,29.493,0,19,0z M19,36
	C9.626,36,2,28.374,2,19S9.626,2,19,2s17,7.626,17,17S28.374,36,19,36z M17,31.417h4v-16h-4V31.417z M19,6.583c-1.657,0-3,1.346-3,3
	s1.343,3,3,3c1.654,0,3-1.346,3-3S20.654,6.583,19,6.583z"/>
</svg>
