<?xml version="1.0" encoding="utf-8"?>
<!-- Generator: Adobe Illustrator 13.0.0, SVG Export Plug-In . SVG Version: 6.00 Build 14948)  -->
<!DOCTYPE svg PUBLIC "-//W3C//DTD SVG 1.1//EN" "http://www.w3.org/Graphics/SVG/1.1/DTD/svg11.dtd" [
	<!ENTITY st0 "fill:#B4B4B4;">
]>
<svg version="1.1" id="レイヤー_1" xmlns="http://www.w3.org/2000/svg" xmlns:xlink="http://www.w3.org/1999/xlink" x="0px"
	 y="0px" width="38px" height="38px" viewBox="0 0 38 38" style="enable-background:new 0 0 38 38;" xml:space="preserve">
<g>
	<path style="&st0;" d="M19,0C8.506,0,0,8.506,0,19c0,10.493,8.506,19,19,19c10.493,0,19-8.507,19-19C38,8.506,29.493,0,19,0z
		 M19,36C9.626,36,2,28.374,2,19S9.626,2,19,2s17,7.626,17,17S28.374,36,19,36z"/>
	<path style="&st0;" d="M19,5.499c-3.963,0.002-7.172,3.21-7.174,7.172h4.001C15.83,10.92,17.25,9.503,19,9.499
		c1.749,0.004,3.167,1.421,3.17,3.172c-0.004,1.749-1.422,3.168-3.17,3.173h-2.002v8.464H21V19.56
		c2.986-0.867,5.169-3.622,5.17-6.889C26.17,8.709,22.959,5.501,19,5.499z"/>
	<circle style="&st0;" cx="19" cy="29.5" r="3"/>
</g>
</svg>
