<?xml version="1.0" encoding="utf-8"?>
<!-- Generator: Adobe Illustrator 13.0.0, SVG Export Plug-In . SVG Version: 6.00 Build 14948)  -->
<!DOCTYPE svg PUBLIC "-//W3C//DTD SVG 1.1//EN" "http://www.w3.org/Graphics/SVG/1.1/DTD/svg11.dtd" [
	<!ENTITY st0 "fill:#B4B4B4;">
]>
<svg version="1.1" id="レイヤー_1" xmlns="http://www.w3.org/2000/svg" xmlns:xlink="http://www.w3.org/1999/xlink" x="0px"
	 y="0px" width="37.998px" height="37.998px" viewBox="0 0 37.998 37.998" style="enable-background:new 0 0 37.998 37.998;"
	 xml:space="preserve">
<path style="&st0;" d="M37.998,21.564v-5.134l-3.324-0.646c-0.128-0.627-0.304-1.236-0.502-1.834l2.563-2.229l-2.567-4.446
	l-3.223,1.109c-0.419-0.471-0.863-0.916-1.335-1.334l1.11-3.222l-4.447-2.567l-2.229,2.564c-0.598-0.199-1.207-0.374-1.834-0.502
	L21.564,0h-5.134l-0.646,3.324c-0.628,0.128-1.237,0.303-1.836,0.503l-2.228-2.564L7.275,3.83l1.109,3.222
	C7.913,7.47,7.467,7.916,7.048,8.387l-3.22-1.109l-2.566,4.446l2.562,2.228c-0.199,0.599-0.375,1.208-0.503,1.837L0,16.434v5.133
	l3.321,0.646c0.128,0.629,0.304,1.239,0.503,1.839l-2.562,2.227l2.566,4.444l3.22-1.108c0.42,0.472,0.866,0.918,1.338,1.338
	L7.278,34.17l4.444,2.566l2.228-2.562c0.6,0.2,1.209,0.375,1.838,0.503l0.646,3.321h5.133l0.646-3.321
	c0.629-0.129,1.238-0.305,1.838-0.504l2.228,2.562l4.445-2.566l-1.109-3.222c0.472-0.419,0.917-0.865,1.336-1.336l3.221,1.108
	l2.566-4.445l-2.563-2.229c0.199-0.598,0.374-1.207,0.502-1.835L37.998,21.564z M18.998,27c-4.411,0-8-3.589-8-8s3.589-8,8-8
	s8,3.589,8,8S23.409,27,18.998,27z"/>
</svg>
